mtllib pyramid.mtl
o pyramid
v 0.000000 2.500000 -0.000000
v -1.250000 -0.000000 -1.250000
v 1.250000 -0.000000 -1.250000
v 1.250000 0.000000 1.250000
v -1.250000 0.000000 1.250000
vn -0.0000 1.0000 -0.0000
vn 0.6626 -0.3491 -0.6626
vn -0.6626 -0.3491 -0.6626
vn 0.6626 -0.3491 0.6626
vn -0.6626 -0.3491 0.6626
vt 0.505021 1.000000
vt 1.000000 0.363501
vt 0.487186 0.572373
vt 0.533451 0.000000
vt 0.000000 0.339721
s 1
usemtl Material
f 1/1/1 3/2/2 2/3/3
f 1/1/1 4/4/4 3/2/2
f 1/1/1 5/5/5 4/4/4
f 1/1/1 2/3/3 5/5/5
f 3/2/2 5/5/5 2/3/3
f 3/2/2 4/4/4 5/5/5
